<svg 
          width="20.066579818725586" 
          height="19.993684768676758" fill="none" 
          xmlns="http://www.w3.org/2000/svg">
          <path d="M 19.883787879094385 18.9265793387835 L 13.810936748260842 12.81656023782649 C 14.942811687911403 11.460935423178148 15.624999257414038 9.716874030118635 15.624999257414038 7.812499254706676 C 15.624999257414038 3.497812116249376 12.12718697371723 0 7.812499628707019 0 C 3.497812283696807 0 0 3.497812116249376 0 7.812499254706676 C 0 12.127186393163976 3.497812283696807 15.624998509413352 7.812499628707019 15.624998509413352 C 9.772811961632428 15.624998509413352 11.563436286446123 14.901247763661909 12.935311179523826 13.708122853045204 L 18.999686530273124 19.810622232734712 C 19.24374902433637 20.05470423563349 19.639705119452877 20.05470423563349 19.883767613516124 19.810622232734712 C 20.127517592991087 19.566559750355236 20.127517592991087 19.170934777964103 19.883767613516124 18.9265793387835 L 19.883787879094385 18.9265793387835 Z M 7.812499628707019 14.385310231222725 C 4.182499746388318 14.385310231222725 1.2396874434674154 11.442498963249854 1.2396874434674154 7.812499254706676 C 1.2396874434674154 4.182499546163498 4.182499746388318 1.239687384121041 7.812499628707019 1.239687384121041 C 11.44249951102572 1.239687384121041 14.385310919876993 4.182499546163498 14.385310919876993 7.812499254706676 C 14.385310919876993 11.442498963249854 11.44249951102572 14.385310231222725 7.812499628707019 14.385310231222725 Z" fill="rgb(63.93577203154564,18.838137052953243,114.74999696016312)"/>
        </svg>