<svg 
          width="14" 
          height="19" fill="none" 
          xmlns="http://www.w3.org/2000/svg">
          <path d="M 7 0 C 7.795649468898773 4.440892098500626e-16 8.558711588382721 0.3160706162452698 9.121320724487305 0.8786797523498535 C 9.683929860591888 1.4412888884544373 10 2.204350531101227 10 3 L 10 9 C 10 9.795649468898773 9.683929860591888 10.558711588382721 9.121320724487305 11.121320724487305 C 8.558711588382721 11.683929860591888 7.795649468898773 12 7 12 C 6.204350531101227 12 5.441288411617279 11.683929860591888 4.878679275512695 11.121320724487305 C 4.316070139408112 10.558711588382721 4.000000000000002 9.795649468898773 4 9 L 4 3 C 4 2.204350531101227 4.316070139408112 1.4412888884544373 4.878679275512695 0.8786797523498535 C 5.441288411617279 0.3160706162452698 6.204350531101227 8.881784197001252e-16 7 0 Z M 14 9 C 14 12.52999997138977 11.390000104904175 15.440000295639038 8 15.930000305175781 L 8 19 L 6 19 L 6 15.930000305175781 C 2.609999895095825 15.440000295639038 0 12.52999997138977 0 9 L 2 9 C 2.0000000000000018 10.326082468032837 2.5267841815948486 11.597851991653442 3.464466094970703 12.535533905029297 C 4.402148008346558 13.473215818405151 5.673917531967163 13.999999999999998 7 14 C 8.326082468032837 13.999999999999998 9.597851991653442 13.473215818405151 10.535533905029297 12.535533905029297 C 11.473215818405151 11.597851991653442 12.000000000000004 10.326082468032837 12 9 L 14 9 Z" fill="rgb(63.93577203154564,18.838137052953243,114.74999696016312)"/>
        </svg>