<svg width="68" height="68" viewBox="0 0 68 68" fill="none" xmlns="http://www.w3.org/2000/svg">
<path d="M18.3337 2.66669V65.3334M49.667 2.66669V65.3334M2.66699 18.3334H18.3337M2.66699 49.6667H18.3337M2.66699 34H65.3337M49.667 18.3334H65.3337M49.667 49.6667H65.3337M2.66699 10.5C2.66699 8.42249 3.49229 6.43005 4.96132 4.96102C6.43036 3.49198 8.4228 2.66669 10.5003 2.66669H57.5003C59.5779 2.66669 61.5703 3.49198 63.0393 4.96102C64.5084 6.43005 65.3337 8.42249 65.3337 10.5V57.5C65.3337 59.5775 64.5084 61.57 63.0393 63.039C61.5703 64.5081 59.5779 65.3334 57.5003 65.3334H10.5003C8.4228 65.3334 6.43036 64.5081 4.96132 63.039C3.49229 61.57 2.66699 59.5775 2.66699 57.5V10.5Z" stroke="#E7B5FF" stroke-width="4.81" stroke-linecap="round" stroke-linejoin="round"/>
</svg>
