<svg width="67" height="69" viewBox="0 0 67 69" fill="none" xmlns="http://www.w3.org/2000/svg">
<path d="M62.0742 12.131L30.9492 0.815311C29.9044 0.433389 28.7829 0.309339 27.68 0.453705C26.577 0.598071 25.5252 1.00658 24.614 1.64453C23.7027 2.28247 22.959 3.13098 22.4459 4.11795C21.9328 5.10491 21.6656 6.20116 21.667 7.31352V28.5096C19.5742 27.2628 17.1863 26.5977 14.7503 26.5834C7.12124 26.5834 0.916992 32.7876 0.916992 40.4167C0.916992 48.0458 7.12124 54.25 14.7503 54.25C22.3794 54.25 28.5837 48.0458 28.5837 40.4167V7.31352L59.7087 18.6292V42.3395C57.615 41.0952 55.2275 40.4315 52.792 40.4167C45.1629 40.4167 38.9587 46.6209 38.9587 54.25C38.9587 61.8791 45.1629 68.0834 52.792 68.0834C60.4211 68.0834 66.6253 61.8791 66.6253 54.25V18.6292C66.6253 15.7311 64.7959 13.1166 62.0742 12.131ZM14.7503 47.3333C10.9358 47.3333 7.83366 44.2312 7.83366 40.4167C7.83366 36.6021 10.9358 33.5 14.7503 33.5C18.5649 33.5 21.667 36.6021 21.667 40.4167C21.667 44.2312 18.5649 47.3333 14.7503 47.3333ZM52.792 61.1667C48.9775 61.1667 45.8753 58.0646 45.8753 54.25C45.8753 50.4355 48.9775 47.3333 52.792 47.3333C56.6065 47.3333 59.7087 50.4355 59.7087 54.25C59.7087 58.0646 56.6065 61.1667 52.792 61.1667Z" fill="#FFC7FD"/>
</svg>
