<svg width="73" height="73" viewBox="0 0 73 73" fill="none" xmlns="http://www.w3.org/2000/svg">
<path d="M58.1559 2.8125L46.5383 14.4302C45.6443 15.324 44.9351 16.3851 44.4513 17.553C43.9675 18.7209 43.7184 19.9727 43.7184 21.2369V23.4717C43.7185 23.7878 43.6562 24.101 43.5352 24.3931C43.4142 24.6852 43.2368 24.9506 43.0131 25.1741L41.3122 26.875M46.1247 31.6875L47.8256 29.9866C48.0491 29.7629 48.3145 29.5855 48.6066 29.4645C48.8987 29.3435 49.2118 29.2812 49.528 29.2812H51.7628C53.027 29.2813 54.2788 29.0322 55.4467 28.5484C56.6146 28.0646 57.6757 27.3554 58.5695 26.4614L70.1872 14.8437M64.1716 8.82812L52.1403 20.8594M28.0778 53.3437L13.0809 68.4249C11.9528 69.5527 10.4229 70.1862 8.82782 70.1862C7.23269 70.1862 5.70287 69.5527 4.57477 68.4249C3.44701 67.2968 2.81348 65.767 2.81348 64.1719C2.81348 62.5767 3.44701 61.0469 4.57477 59.9188L17.2497 47.3281M6.64588 5.17963L62.0543 60.588C63.1056 61.6395 63.6963 63.0655 63.6963 64.5523C63.6963 66.0392 63.1056 67.4652 62.0543 68.5166C61.0027 69.5676 59.5768 70.158 58.09 70.158C56.6032 70.158 55.1773 69.5676 54.1257 68.5166L40.5905 54.7484C39.7048 53.8489 39.2079 52.6375 39.207 51.3751V50.5435C39.2071 49.9061 39.0806 49.275 38.8348 48.6869C38.589 48.0988 38.2289 47.5653 37.7752 47.1176L36.0277 45.5039C35.4345 44.9565 34.7131 44.5671 33.9299 44.3716C33.1467 44.176 32.327 44.1806 31.5461 44.385C30.3146 44.7064 29.0205 44.7001 27.7922 44.367C26.5639 44.0338 25.4441 43.3852 24.5439 42.4855L11.696 29.6361C4.0742 22.0144 1.26941 10.505 6.64588 5.17963Z" stroke="#A7DAFF" stroke-width="4.81" stroke-linecap="round" stroke-linejoin="round"/>
</svg>
