<svg width="61" height="72" viewBox="0 0 61 72" fill="none" xmlns="http://www.w3.org/2000/svg">
<path d="M54.125 17.25H47.375C47.375 7.8 39.95 0.375 30.5 0.375C21.05 0.375 13.625 7.8 13.625 17.25H6.875C3.1625 17.25 0.125 20.2875 0.125 24V64.5C0.125 68.2125 3.1625 71.25 6.875 71.25H54.125C57.8375 71.25 60.875 68.2125 60.875 64.5V24C60.875 20.2875 57.8375 17.25 54.125 17.25ZM30.5 7.125C36.2375 7.125 40.625 11.5125 40.625 17.25H20.375C20.375 11.5125 24.7625 7.125 30.5 7.125ZM54.125 64.5H6.875V24H54.125V64.5ZM30.5 37.5C24.7625 37.5 20.375 33.1125 20.375 27.375H13.625C13.625 36.825 21.05 44.25 30.5 44.25C39.95 44.25 47.375 36.825 47.375 27.375H40.625C40.625 33.1125 36.2375 37.5 30.5 37.5Z" fill="#A9C1FF"/>
</svg>
