<svg width="72" height="72" viewBox="0 0 72 72" fill="none" xmlns="http://www.w3.org/2000/svg">
<path d="M22.0607 62.6959C18.0986 61.2365 14.5728 58.7936 11.8147 55.5967C9.05658 52.3998 7.15681 48.554 6.294 44.4208L0.345666 16.435C-0.514334 12.565 1.95817 8.76668 5.82817 7.94251L40.8373 0.525013L40.9448 0.489179C44.779 -0.263321 48.5415 2.20918 49.3298 6.00751L50.584 11.9917L66.1715 15.3242H66.279C70.0415 16.1842 72.4782 19.9825 71.6898 23.7808L65.7415 51.8025C65.0549 55.0215 63.741 58.0736 61.8746 60.7847C60.0083 63.4957 57.6261 65.8125 54.8642 67.6027C52.1023 69.393 49.0148 70.6216 45.778 71.2184C42.5412 71.8151 39.2186 71.7684 35.9998 71.0808C30.5394 69.9412 25.6261 66.9856 22.0607 62.6959ZM64.6665 22.3117L29.6573 14.8583L23.709 42.88V42.9875C21.6665 52.5909 27.8657 62.0508 37.5048 64.0933C47.144 66.1358 56.6757 59.9725 58.7182 50.3334L64.6665 22.3117ZM50.3332 52.125C49.2011 54.0414 47.4953 55.5535 45.4568 56.4473C43.4184 57.3411 41.1505 57.5715 38.974 57.1058C36.8043 56.6415 34.8336 55.5115 33.3369 53.8735C31.8401 52.2354 30.892 50.1711 30.6248 47.9683L50.3332 52.125ZM23.3507 11.5258L7.33317 14.9658L13.2815 42.9517L13.3173 43.0592C13.8548 45.6034 14.9298 47.8967 16.399 49.8675C16.0407 47.1083 16.1123 44.2417 16.7215 41.375L18.2623 34.2083C16.6498 33.9217 15.2523 33.0258 14.4998 31.7358C14.7148 29.55 16.5065 27.615 18.979 27.0417H19.8748L22.6698 13.3892C22.8132 12.7083 23.0282 12.0992 23.3507 11.5258ZM46.8573 36.8242C48.004 34.925 50.4407 33.9217 52.9132 34.4592C55.3857 34.9608 57.1773 36.86 57.4998 39.0817C56.3173 40.945 53.9165 41.9483 51.4082 41.375C48.9357 40.9092 47.144 39.01 46.8573 36.8242ZM29.3707 33.0975C30.5173 31.1983 32.9182 30.195 35.3907 30.7325C37.7915 31.2342 39.6907 33.1692 39.9773 35.355C38.7948 37.2183 36.394 38.2575 33.9215 37.7917C31.449 37.1825 29.6573 35.2833 29.3707 33.0975ZM35.8923 8.87418L42.9157 10.3792L42.3423 7.51251L35.8923 8.87418Z" fill="#D1B4FF"/>
</svg>
